<svg width="65" height="65" viewBox="0 0 65 65" fill="none" xmlns="http://www.w3.org/2000/svg">
<circle cx="32.5" cy="32.5" r="32.5" fill="#D9D9D9"/>
<path d="M31.9236 46.603C29.4397 46.603 27.2429 46.0574 25.3332 44.9662C23.438 43.875 21.9519 42.2454 20.875 40.0773C19.7982 37.9092 19.2598 35.2171 19.2598 32.0008C19.2598 28.7272 19.7982 26.0207 20.875 23.8813C21.9519 21.7276 23.438 20.1267 25.3332 19.0785C27.2429 18.016 29.4397 17.4848 31.9236 17.4848C34.4219 17.4848 36.6259 18.0304 38.5355 19.1216C40.4451 20.1985 41.9384 21.8138 43.0153 23.9675C44.0921 26.1212 44.6305 28.799 44.6305 32.0008C44.6305 35.2601 44.0921 37.9738 43.0153 40.1419C41.9384 42.31 40.4451 43.9324 38.5355 45.0093C36.6259 46.0718 34.4219 46.603 31.9236 46.603ZM40.4954 53.7534C39.074 53.7534 37.7602 53.3729 36.5541 52.6119C35.348 51.8509 34.2927 50.7813 33.3881 49.4029L30.5022 45.0524L34.5511 43.1571L37.0495 47.0338C37.4658 47.6368 37.9397 48.0604 38.4709 48.3045C39.0022 48.5486 39.5478 48.685 40.1077 48.7137C40.8256 48.7137 41.5148 48.6204 42.1753 48.4337C42.8501 48.2614 43.5537 48.0245 44.2859 47.723V52.978C43.6111 53.2508 42.965 53.4447 42.3476 53.5595C41.7446 53.6888 41.1272 53.7534 40.4954 53.7534ZM31.9236 41.9941C34.2066 41.9941 36.0157 41.1326 37.351 39.4096C38.7006 37.6867 39.3755 35.2027 39.3755 31.9578C39.3755 28.8277 38.7006 26.394 37.351 24.6567C36.0157 22.9193 34.2066 22.0507 31.9236 22.0507C29.6837 22.0507 27.889 22.9265 26.5393 24.6782C25.1897 26.4155 24.5148 28.8564 24.5148 32.0008C24.5148 35.2314 25.1897 37.7082 26.5393 39.4312C27.889 41.1398 29.6837 41.9941 31.9236 41.9941Z" fill="#293264"/>
</svg>
